<?xml version="1.0" encoding="UTF-8"?>
<svg version="1.1" xmlns="http://www.w3.org/2000/svg" width="3840" height="3840">
<path d="M0 0 C1.80722667 -0.00239327 3.61445236 -0.00566065 5.42167607 -0.0097166 C10.37904552 -0.01831349 15.33633898 -0.01451975 20.29370955 -0.00866088 C25.69042611 -0.00448357 31.08712898 -0.0118965 36.48384219 -0.01781338 C45.93958637 -0.02657293 55.39530888 -0.02788836 64.8510561 -0.02431011 C78.91233734 -0.01900308 92.97359761 -0.02509845 107.03487657 -0.03339304 C132.87906022 -0.04821899 158.72323438 -0.05048245 184.56742145 -0.04807267 C188.22780284 -0.04773421 191.88818423 -0.04741211 195.54856563 -0.04710698 C196.27563769 -0.04704594 197.00270976 -0.04698489 197.75181431 -0.046922 C213.8737672 -0.04564942 229.99571876 -0.04825274 246.11767126 -0.05163305 C249.80029576 -0.05240379 253.48292027 -0.05314853 257.16554478 -0.05389806 C258.64356639 -0.05419976 260.121588 -0.05450164 261.59960961 -0.05480371 C262.33224601 -0.05495338 263.06488242 -0.05510306 263.81971993 -0.05525728 C265.30165869 -0.05556081 266.78359745 -0.05586549 268.26553621 -0.05617132 C310.30990543 -0.0648433 352.35427349 -0.06948904 394.39864349 -0.06522369 C395.56620066 -0.06510661 395.56620066 -0.06510661 396.75734484 -0.06498716 C405.43676203 -0.06411438 414.11617921 -0.06318512 422.79559638 -0.06223653 C423.57920063 -0.06215102 424.36280487 -0.06206551 425.1701547 -0.06197741 C431.68074174 -0.06126666 431.68074174 -0.06126666 434.67701212 -0.06093518 C484.79427119 -0.05539992 534.91151184 -0.06294049 585.02876759 -0.08170605 C597.65635741 -0.08642839 610.28394724 -0.09110895 622.91153717 -0.09554291 C624.07788395 -0.09595289 624.07788395 -0.09595289 625.26779329 -0.09637116 C649.23878394 -0.10474449 673.20977305 -0.10942231 697.18076515 -0.11025047 C697.93352304 -0.11027684 698.68628092 -0.11030321 699.46184965 -0.11033037 C715.98788285 -0.11087119 732.51391592 -0.11049861 749.03994907 -0.10929066 C754.95346068 -0.10886504 760.86697228 -0.10849992 766.78048389 -0.10816122 C768.25157211 -0.10807591 769.72266034 -0.10798698 771.19374857 -0.1078944 C794.61734791 -0.10644667 818.04093473 -0.11356512 841.46453107 -0.12489836 C865.71754698 -0.1365569 889.97053985 -0.13710193 914.22355594 -0.12505493 C928.20155166 -0.11842255 942.17948848 -0.12006619 956.1574795 -0.13364345 C965.49733453 -0.14188387 974.83714543 -0.13919564 984.17699688 -0.12766818 C989.49653532 -0.1214078 994.81595879 -0.11982132 1000.13549062 -0.13153151 C1004.98328135 -0.14210485 1009.8308602 -0.13865169 1014.67863974 -0.12442699 C1016.41328216 -0.1217183 1018.14794184 -0.12393225 1019.88256792 -0.13193413 C1034.90874655 -0.1964701 1049.58684215 1.41637024 1063.98994923 5.94197559 C1064.8126128 6.19616261 1065.63527637 6.45034962 1066.48286915 6.71223927 C1091.32956566 14.65985181 1112.18971229 28.33801047 1130.98994923 46.25447559 C1132.06889454 47.25414356 1132.06889454 47.25414356 1133.16963673 48.27400684 C1159.14446917 73.04919843 1175.72275412 111.95432127 1177.08293126 147.69791639 C1177.11750615 150.36757524 1177.12263113 153.03563033 1177.1160384 155.70550688 C1177.11752115 156.72848579 1177.11900391 157.7514647 1177.12053159 158.80544298 C1177.12428786 162.24057741 1177.12091969 165.67566759 1177.11759973 169.11080194 C1177.1188425 171.60990413 1177.12052322 174.10900613 1177.12260209 176.60810776 C1177.12613091 182.06908051 1177.12654088 187.53003997 1177.12424046 192.99101312 C1177.1208073 201.19007794 1177.12316859 209.38913422 1177.12663848 217.58819866 C1177.13240878 231.62506597 1177.13341128 245.66193008 1177.13186875 259.69879833 C1177.13031557 274.00577413 1177.13094674 288.31274739 1177.13420996 302.61972293 C1177.13451791 303.97930846 1177.13451791 303.97930846 1177.13483207 305.36636036 C1177.13588957 309.99410785 1177.13698106 314.62185533 1177.13808352 319.24960281 C1177.14606307 353.07553995 1177.14905403 386.90147614 1177.14952946 420.72741413 C1177.15002374 455.02274597 1177.15266664 489.31807664 1177.15793705 523.61340809 C1177.15827059 525.79869912 1177.15860406 527.98399015 1177.15893745 530.16928119 C1177.16028554 538.98016603 1177.16164884 547.79105087 1177.16302956 556.60193571 C1177.17820041 653.55019412 1177.18497303 750.49845224 1177.18945152 847.44671165 C1177.18950821 848.67317099 1177.1895649 849.89963033 1177.18962331 851.16325511 C1177.18990983 857.36690535 1177.19019487 863.57055559 1177.19047743 869.77420583 C1177.19285209 921.73900448 1177.19656167 973.70380301 1177.20051453 1025.66860156 C1177.20240709 1050.55046299 1177.20423559 1075.43232442 1177.20604873 1100.31418586 C1177.20613892 1101.55165151 1177.20622911 1102.78911716 1177.20632203 1104.06408176 C1177.21065834 1163.62271821 1177.21458665 1223.18135468 1177.21804905 1282.73999119 C1177.21812292 1284.01050069 1177.21819679 1285.2810102 1177.21827291 1286.59001999 C1177.22296817 1367.56400126 1177.22579101 1448.53798248 1177.22743583 1529.51196387 C1177.22757141 1536.15128618 1177.22771044 1542.79060849 1177.22784937 1549.4299308 C1177.22807184 1560.07445271 1177.22829321 1570.71897462 1177.22851325 1581.36349653 C1177.22854052 1582.68254035 1177.22856779 1584.00158418 1177.22859589 1585.36059903 C1177.228651 1588.02649673 1177.22870611 1590.69239444 1177.22876122 1593.35829214 C1177.22914784 1612.0589482 1177.22953578 1630.75960426 1177.22993035 1649.46026031 C1177.23007146 1656.15176294 1177.23021153 1662.84326558 1177.23034925 1669.53476821 C1177.23295357 1795.92050471 1177.23828446 1922.30623999 1177.25423145 2048.69197559 C1177.25439925 2050.02252653 1177.25456704 2051.35307746 1177.25473992 2052.72394812 C1177.25999063 2094.29629846 1177.26556498 2135.86864875 1177.27119923 2177.44099903 C1177.27698015 2220.09681795 1177.28271067 2262.75263688 1177.28815556 2305.40845585 C1177.28840727 2307.37851979 1177.28840727 2307.37851979 1177.28866406 2309.388383 C1177.29915611 2391.63473603 1177.30601853 2473.88108872 1177.30902195 2556.12744236 C1177.30906876 2557.39761401 1177.30911557 2558.66778566 1177.3091638 2559.97644736 C1177.3112144 2615.75794367 1177.31245853 2671.53943997 1177.31280986 2727.32093631 C1177.31295313 2749.76165541 1177.31319179 2772.2023745 1177.31347391 2794.6430936 C1177.31351945 2798.36391297 1177.3135611 2802.08473234 1177.31360203 2805.80555172 C1177.31424823 2862.72813819 1177.31720804 2919.65072325 1177.32706261 2976.57330894 C1177.32738116 2978.41501942 1177.32738116 2978.41501942 1177.32770616 2980.29393618 C1177.331135 3000.04514293 1177.33474795 3019.79634965 1177.33838256 3039.54755637 C1177.34869455 3095.6123454 1177.35747775 3151.67713271 1177.35553789 3207.74192286 C1177.35547978 3209.44804797 1177.35547978 3209.44804797 1177.3554205 3211.18864026 C1177.35454397 3236.00245623 1177.35283195 3260.81627208 1177.35030088 3285.63008794 C1177.34930411 3295.52630207 1177.34841746 3305.42251621 1177.34756565 3315.31873035 C1177.34746976 3316.3982448 1177.34737388 3317.47775925 1177.34727508 3318.58998626 C1177.34428544 3352.836874 1177.35052068 3387.08375174 1177.36208452 3421.33063743 C1177.37343188 3455.05018937 1177.3756851 3488.76972791 1177.36467901 3522.48928041 C1177.36317287 3527.10785163 1177.36177157 3531.72642288 1177.36043319 3536.34499416 C1177.36016715 3537.2491691 1177.3599011 3538.15334404 1177.35962699 3539.08491822 C1177.35570617 3553.33878062 1177.36179373 3567.59262008 1177.37217305 3581.84647851 C1177.38212473 3595.79411304 1177.3814212 3609.74171306 1177.36932209 3623.68934628 C1177.36258421 3631.82272843 1177.36392509 3639.95600893 1177.37757603 3648.08938301 C1177.38678083 3654.12204013 1177.38024031 3660.15457461 1177.36771429 3666.18723014 C1177.36509838 3668.5999387 1177.36744365 3671.01265941 1177.37552754 3673.42535584 C1177.51958575 3719.52378819 1163.85473172 3759.52195274 1131.98994923 3793.25447559 C1131.29514454 3794.00213184 1130.60033985 3794.74978809 1129.88448048 3795.52010059 C1110.49178174 3815.7252439 1084.7885555 3829.0088725 1057.98994923 3836.25447559 C1057.27933082 3836.44843618 1056.56871242 3836.64239676 1055.83656012 3836.84223494 C1036.23927307 3841.89176698 1015.79464216 3840.81825317 995.72899097 3840.76153902 C990.17758699 3840.75034494 984.62622337 3840.76260853 979.07482243 3840.77175644 C969.32145982 3840.78463422 959.56818775 3840.78271361 949.81482491 3840.77104466 C939.30224094 3840.75852209 928.78970478 3840.75467488 918.27711526 3840.76143301 C917.60869544 3840.76185727 916.94027563 3840.76228153 916.25160067 3840.76271864 C912.83828269 3840.76492388 909.42496481 3840.76726815 906.01164695 3840.76965917 C881.1245378 3840.78678927 856.23746058 3840.78423758 831.35035038 3840.77167225 C806.13272344 3840.75900124 780.91511731 3840.75507321 755.69748783 3840.76178646 C754.90156976 3840.76199429 754.10565169 3840.76220213 753.28561489 3840.76241626 C745.99131426 3840.76432268 738.69701366 3840.76632051 731.40271308 3840.76842789 C713.11300429 3840.77370298 694.82329533 3840.77760375 676.53358603 3840.78057778 C675.27654806 3840.78078321 675.27654806 3840.78078321 673.9941154 3840.7809928 C632.70004842 3840.78761247 591.40598613 3840.77904064 550.11192036 3840.76909161 C535.577748 3840.76559594 521.04357564 3840.76212343 506.50940323 3840.75884604 C505.6058591 3840.75864179 504.70231496 3840.75843754 503.7713907 3840.7582271 C461.89353984 3840.74882291 420.01569058 3840.74867996 378.1378389 3840.75067144 C374.48360506 3840.75084319 370.82937121 3840.75100418 367.17513736 3840.75116516 C352.48863313 3840.75181309 337.80212889 3840.75250504 323.11562467 3840.753268 C281.1206956 3840.75544957 239.12576657 3840.75628752 197.13083744 3840.7559948 C196.1958074 3840.75598877 195.26077737 3840.75598274 194.29741309 3840.75597653 C133.74688914 3840.75556536 73.19636742 3840.7492165 12.64584446 3840.73843765 C11.67926987 3840.73826601 10.71269528 3840.73809437 9.71683055 3840.73791752 C-22.65840441 3840.73216507 -55.0336393 3840.72604984 -87.40887419 3840.71990787 C-185.31755999 3840.70134339 -283.22624028 3840.68855924 -458.08575949 3840.70027388 C-463.00713073 3840.70068483 -467.92850197 3840.70109221 -472.84987322 3840.70149956 C-473.82381212 3840.70158018 -474.79775101 3840.70166081 -475.80120321 3840.70174387 C-478.75134153 3840.70198801 -481.70147984 3840.70223202 -484.65161815 3840.70247602 C-485.6247367 3840.70255656 -486.59785525 3840.70263711 -487.60046224 3840.70272009 C-509.15773504 3840.70450361 -530.71500784 3840.70624126 -552.27228065 3840.70789364 C-554.22496596 3840.70804348 -556.17765126 3840.70819387 -558.13033657 3840.70834479 C-618.65292854 3840.71302237 -679.17551947 3840.7140107 -739.69811153 3840.71050835 C-740.63280367 3840.71045454 -741.5674958 3840.71040073 -742.53051194 3840.71034529 C-785.42002889 3840.7078635 -828.3095457 3840.70424601 -871.19906247 3840.69971334 C-875.79545454 3840.69922885 -880.3918466 3840.69875045 -884.98823866 3840.69827252 C-885.89712392 3840.69817798 -886.80600918 3840.69808344 -887.74243641 3840.69798604 C-895.07202336 3840.69722428 -902.4016103 3840.6964676 -909.73119725 3840.69571312 C-914.29720834 3840.69524234 -918.86321944 3840.6947664 -923.42923053 3840.69427996 C-965.30842297 3840.68982105 -1007.18761417 3840.68714544 -1049.06680679 3840.69038367 C-1049.96993411 3840.69045286 -1050.87306142 3840.69052205 -1051.80355623 3840.69059333 C-1061.80747395 3840.69136272 -1071.81139166 3840.6921834 -1081.81530938 3840.69302107 C-1085.43594065 3840.69332369 -1089.05657191 3840.69362561 -1092.67720318 3840.69392681 C-1094.01842642 3840.69403857 -1094.01842642 3840.69403857 -1095.38674508 3840.6941526 C-1136.62549121 3840.69756911 -1177.86423467 3840.69905386 -1219.10298014 3840.6896354 C-1219.93971443 3840.68944467 -1220.77644872 3840.68925394 -1221.63853859 3840.68905744 C-1239.89311453 3840.68486008 -1258.14769013 3840.67977806 -1276.40226558 3840.67382513 C-1283.6825749 3840.671462 -1290.96288426 3840.66920262 -1298.24319363 3840.66697216 C-1299.0373484 3840.66672573 -1299.83150318 3840.6664793 -1300.64972325 3840.66622541 C-1325.83671164 3840.65845734 -1351.02368825 3840.65985128 -1376.21067665 3840.6665382 C-1401.0127195 3840.67308101 -1425.8147423 3840.67047761 -1450.61678152 3840.65458331 C-1454.0151748 3840.65240632 -1457.41356813 3840.65033297 -1460.8119615 3840.6483214 C-1461.47725191 3840.64792347 -1462.14254232 3840.64752555 -1462.82799305 3840.64711557 C-1473.94315887 3840.64075471 -1485.05829352 3840.64616255 -1496.17345632 3840.6548089 C-1505.79878352 3840.66147772 -1515.42406632 3840.65730957 -1525.04938689 3840.64425741 C-1530.5090151 3840.63715795 -1535.96853205 3840.63470852 -1541.42815655 3840.64558931 C-1546.38849692 3840.65538652 -1551.34862845 3840.6512216 -1556.30895411 3840.63624947 C-1558.08132956 3840.63327859 -1559.85372262 3840.63522824 -1561.62608371 3840.64295835 C-1576.75357273 3840.7042662 -1591.5071036 3839.12395174 -1606.01005077 3834.56697559 C-1607.24404613 3834.18569508 -1607.24404613 3834.18569508 -1608.5029707 3833.79671192 C-1633.3496672 3825.84909938 -1654.20981383 3812.17094071 -1673.01005077 3794.25447559 C-1674.08899609 3793.25480762 -1674.08899609 3793.25480762 -1675.18973827 3792.23494434 C-1684.85430117 3783.01673676 -1692.45472255 3771.8258242 -1699.01005077 3760.25447559 C-1699.33715038 3759.67955372 -1699.66424999 3759.10463184 -1700.00126171 3758.51228809 C-1709.3023754 3741.8882488 -1715.48649163 3723.1290295 -1718.01005077 3704.25447559 C-1718.09598941 3703.62480487 -1718.18192806 3702.99513414 -1718.2704709 3702.34638249 C-1719.04791643 3696.12046094 -1719.15056992 3689.97803525 -1719.13770127 3683.70924544 C-1719.13935205 3682.56843498 -1719.14100283 3681.42762452 -1719.14270363 3680.25224404 C-1719.1470279 3676.41794708 -1719.14422751 3672.58368854 -1719.14147854 3668.7493906 C-1719.14257376 3665.96540766 -1719.14517358 3663.18142657 -1719.14769864 3660.39744461 C-1719.15240834 3654.3194331 -1719.15339791 3648.24142974 -1719.1519703 3642.16341671 C-1719.14984878 3633.06421554 -1719.15346305 3623.96502279 -1719.15818507 3614.86582292 C-1719.16605877 3599.35799115 -1719.16914713 3583.85016168 -1719.169631 3568.34232807 C-1719.17013327 3552.62365577 -1719.17277895 3536.90498604 -1719.1780386 3521.18631458 C-1719.1785338 3519.69778702 -1719.1785338 3519.69778702 -1719.179039 3518.17918819 C-1719.18038899 3514.13755261 -1719.18175166 3510.09591702 -1719.18313111 3506.05428145 C-1719.19943722 3458.19418067 -1719.2058202 3410.33408039 -1719.21057898 3362.4739773 C-1719.21296186 3338.64344529 -1719.21666528 3314.81291357 -1719.22061607 3290.98238177 C-1719.23328093 3214.54753387 -1719.24406474 3138.11268599 -1719.24745653 3061.67783705 C-1719.24761877 3058.0243291 -1719.24778433 3054.37082114 -1719.24795092 3050.71731318 C-1719.24828472 3043.39010446 -1719.2486152 3036.06289574 -1719.24894547 3028.73568702 C-1719.24933238 3020.15724499 -1719.24972198 3011.57880296 -1719.25011654 3003.00036094 C-1719.25022896 3000.54513803 -1719.25034038 2998.08991512 -1719.25045079 2995.63469221 C-1719.25400021 2916.78172422 -1719.26907836 2837.92876535 -1719.29238854 2759.07580084 C-1719.30913061 2702.41826366 -1719.32460541 2645.7607282 -1719.3291235 2589.10318851 C-1719.32926373 2587.3553232 -1719.32926373 2587.3553232 -1719.32940679 2585.57214748 C-1719.33142586 2559.9917496 -1719.33258188 2534.41135174 -1719.33293537 2508.83095378 C-1719.33307155 2499.67763403 -1719.33328054 2490.52431428 -1719.33352863 2481.37099453 C-1719.33359019 2479.09386827 -1719.33364851 2476.81674201 -1719.33370357 2474.53961574 C-1719.3346233 2438.2582169 -1719.34459044 2401.97682758 -1719.35916106 2365.69543187 C-1719.37377941 2329.14894582 -1719.37881743 2292.60247143 -1719.37074152 2256.05598298 C-1719.36962617 2251.00380512 -1719.3686155 2245.95162724 -1719.3676672 2240.89944935 C-1719.36747723 2239.90910007 -1719.36728726 2238.9187508 -1719.36709154 2237.89839094 C-1719.36435977 2222.22830603 -1719.37169383 2206.55824274 -1719.38324057 2190.88816253 C-1719.3943896 2175.47281802 -1719.39480435 2160.057504 -1719.38387038 2144.64215901 C-1719.3777835 2135.60953819 -1719.37984319 2126.57700949 -1719.39412235 2117.5443974 C-1719.40279455 2111.5363099 -1719.40047148 2105.52828981 -1719.38942364 2099.52020643 C-1719.38347319 2096.12023483 -1719.38367284 2092.72058849 -1719.3941085 2089.32060663 C-1719.52693964 2042.98460866 -1707.1540416 2001.48948356 -1674.33085155 1967.62654591 C-1673.22396575 1966.4766941 -1672.14301263 1965.30195481 -1671.06864452 1964.12166309 C-1650.29742307 1941.90993187 -1620.37085443 1928.42079694 -1591.01005077 1922.25447559 C-1590.21635375 1922.08041254 -1589.42265673 1921.90634949 -1588.60490829 1921.7270118 C-1576.65073602 1919.4971798 -1564.52684688 1919.984017 -1552.41561413 1920.01396656 C-1549.79339535 1920.01309382 -1547.17117675 1920.01134157 -1544.54895908 1920.00878823 C-1538.85987169 1920.00465777 -1533.1708263 1920.00789906 -1527.48174381 1920.01606464 C-1519.02239437 1920.02817253 -1510.56307122 1920.02873275 -1502.10371469 1920.02698067 C-1487.87131541 1920.0243573 -1473.63893474 1920.03101883 -1459.40654087 1920.04301548 C-1445.31950507 1920.05485911 -1431.23247703 1920.06254931 -1417.14543629 1920.06472111 C-1416.26877239 1920.06485859 -1415.39210849 1920.06499607 -1414.48887903 1920.06513771 C-1410.03654706 1920.0658144 -1405.5842151 1920.06641716 -1401.13188312 1920.06699146 C-1369.61543699 1920.07118964 -1338.09900097 1920.08465698 -1306.58256054 1920.10359669 C-1275.96927984 1920.12197238 -1245.3560019 1920.13613626 -1214.74271679 1920.14461231 C-1213.32667546 1920.14500689 -1213.32667546 1920.14500689 -1211.88202724 1920.14540944 C-1202.40151016 1920.14804653 -1192.92099307 1920.15059815 -1183.44047595 1920.15308716 C-1164.12844708 1920.15815926 -1144.81641838 1920.16380177 -1125.50438976 1920.16978931 C-1124.61650004 1920.17006389 -1123.72861033 1920.17033847 -1122.81381486 1920.17062137 C-1063.54588928 1920.18901535 -1004.27796934 1920.2207049 -945.01005077 1920.25447559 C-945.01051872 1919.54849334 -945.01098666 1918.84251108 -945.01146878 1918.11513542 C-945.06232046 1841.23439673 -945.10943498 1764.3536561 -945.13708019 1687.47290516 C-945.13749436 1686.32404879 -945.13790853 1685.17519241 -945.13833526 1683.99152221 C-945.14731449 1659.02232591 -945.15562496 1634.05312943 -945.16324676 1609.08393269 C-945.16698869 1596.83861557 -945.17087836 1584.5932985 -945.1748457 1572.34798145 C-945.17523797 1571.12944091 -945.17563025 1569.91090037 -945.17603441 1568.65543436 C-945.18881293 1529.17623453 -945.21134274 1489.6970476 -945.23894244 1450.21785558 C-945.26725883 1409.63967003 -945.28571143 1369.06149163 -945.29179574 1328.48329637 C-945.29266018 1322.74872999 -945.29363709 1317.01416363 -945.2946825 1311.27959728 C-945.29488477 1310.15097922 -945.29508704 1309.02236116 -945.29529544 1307.85954256 C-945.29883725 1289.7096175 -945.31274242 1271.55971455 -945.33054688 1253.40979851 C-945.34823485 1235.1522895 -945.35494814 1216.89480236 -945.35055491 1198.63728509 C-945.3482774 1187.79713678 -945.35431861 1176.95706863 -945.3724434 1166.11693483 C-945.38373845 1158.86439739 -945.38400999 1151.61191211 -945.37554621 1144.35937099 C-945.37104097 1140.23422961 -945.37111141 1136.10923923 -945.38470032 1131.98411439 C-945.44811549 1111.54628055 -945.31131746 1091.17002123 -939.26005077 1071.44197559 C-939.00401073 1070.58072071 -938.7479707 1069.71946583 -938.48417187 1068.83211231 C-935.97289722 1060.6594952 -932.76564606 1052.92573416 -929.01005077 1045.25447559 C-928.7140498 1044.63411427 -928.41804882 1044.01375294 -928.11307812 1043.37459278 C-921.06686728 1028.73400559 -911.22600487 1015.96434326 -900.01005077 1004.25447559 C-899.31782421 1003.51068653 -898.62559765 1002.76689747 -897.91239452 1002.00056934 C-873.77357518 976.81033137 -838.57071866 960.77201393 -804.01005077 957.25447559 C-801.86432714 957.22439536 -799.71845787 957.20281351 -797.57255077 957.19197559 C-790.75607415 956.76066008 -785.88915799 953.80981576 -780.05961132 950.54012012 C-761.05268879 940.02439582 -740.02654012 933.42291878 -719.01005077 928.25447559 C-718.06919628 928.02034962 -717.12834179 927.78622364 -716.15897655 927.54500294 C-680.71297976 918.87658155 -643.98997412 916.57525938 -607.61869335 915.69907093 C-606.76926336 915.67808024 -605.91983337 915.65708954 -605.04466307 915.63546277 C-585.11922006 915.1531137 -565.19780156 915.1170884 -545.2675693 915.13840997 C-540.05622644 915.14282883 -534.84488437 915.14126016 -529.63354015 915.1405077 C-520.65642016 915.13998953 -511.67930758 915.14306123 -502.70218945 915.14874554 C-489.72362757 915.1569581 -476.74506919 915.15948561 -463.766505 915.16073353 C-442.69713152 915.16290893 -421.62776197 915.16952752 -400.55839062 915.17903614 C-380.12121633 915.18824971 -359.68404313 915.19531112 -339.24686718 915.19954395 C-337.34945992 915.19993804 -337.34945992 915.19993804 -335.4137212 915.20034008 C-329.06634816 915.20164535 -322.71897511 915.20290901 -316.37160206 915.20415199 C-263.91774892 915.21447743 -211.46390004 915.23205398 -159.01005077 915.25447559 C-159.01051872 914.59410376 -159.01098666 913.93373193 -159.01146878 913.25334883 C-159.06232964 841.326402 -159.10944288 769.39945311 -159.13708019 697.47249317 C-159.13770145 695.8597894 -159.13770145 695.8597894 -159.13833526 694.21450575 C-159.14731486 670.84653963 -159.15562528 647.47857333 -159.16324676 624.11060673 C-159.16698863 612.65026219 -159.17087831 601.18991771 -159.1748457 589.72957325 C-159.17523797 588.58915681 -159.17563025 587.44874036 -159.17603441 586.27376585 C-159.18880883 549.33762896 -159.21133558 512.40150589 -159.23894244 475.46537736 C-159.26727037 437.49535868 -159.2857141 399.52534763 -159.29179574 361.55531856 C-159.29266015 356.1871339 -159.29363706 350.81894928 -159.2946825 345.45076466 C-159.29488477 344.39427269 -159.29508704 343.33778073 -159.29529544 342.24927385 C-159.29883478 325.27153029 -159.31273324 308.2938104 -159.33054688 291.31607648 C-159.34825135 274.23025227 -159.35494403 257.14445142 -159.35055491 240.05861837 C-159.3482805 229.9189609 -159.35429058 219.77938924 -159.3724434 209.63974733 C-159.38376319 202.85030868 -159.38399291 196.06092567 -159.37554621 189.27148306 C-159.37105368 185.4133 -159.37105753 181.55527822 -159.38470032 177.69711304 C-159.55112041 127.568838 -148.71827616 83.21717961 -113.13114452 46.34431934 C-99.09583314 32.23778532 -83.10356088 21.45415621 -65.01005077 13.25447559 C-64.39694042 12.97619923 -63.78383007 12.69792286 -63.15214062 12.41121387 C-55.72817694 9.10702161 -48.22014334 6.60390168 -40.38505077 4.50447559 C-39.64601513 4.30571827 -38.90697948 4.10696095 -38.14554882 3.90218067 C-25.41389015 0.66056115 -13.05332263 -0.03608455 0 0 Z " fill="#EDC349" transform="translate(2191.0100507736206,-0.25447559356689453)"/>
<path d="M0 0 C1.80722667 -0.00239327 3.61445236 -0.00566065 5.42167607 -0.0097166 C10.37904552 -0.01831349 15.33633898 -0.01451975 20.29370955 -0.00866088 C25.69042611 -0.00448357 31.08712898 -0.0118965 36.48384219 -0.01781338 C45.93958637 -0.02657293 55.39530888 -0.02788836 64.8510561 -0.02431011 C78.91233734 -0.01900308 92.97359761 -0.02509845 107.03487657 -0.03339304 C132.87906022 -0.04821899 158.72323438 -0.05048245 184.56742145 -0.04807267 C188.22780284 -0.04773421 191.88818423 -0.04741211 195.54856563 -0.04710698 C196.27563769 -0.04704594 197.00270976 -0.04698489 197.75181431 -0.046922 C213.8737672 -0.04564942 229.99571876 -0.04825274 246.11767126 -0.05163305 C249.80029576 -0.05240379 253.48292027 -0.05314853 257.16554478 -0.05389806 C258.64356639 -0.05419976 260.121588 -0.05450164 261.59960961 -0.05480371 C262.33224601 -0.05495338 263.06488242 -0.05510306 263.81971993 -0.05525728 C265.30165869 -0.05556081 266.78359745 -0.05586549 268.26553621 -0.05617132 C310.30990543 -0.0648433 352.35427349 -0.06948904 394.39864349 -0.06522369 C395.56620066 -0.06510661 395.56620066 -0.06510661 396.75734484 -0.06498716 C405.43676203 -0.06411438 414.11617921 -0.06318512 422.79559638 -0.06223653 C423.57920063 -0.06215102 424.36280487 -0.06206551 425.1701547 -0.06197741 C431.68074174 -0.06126666 431.68074174 -0.06126666 434.67701212 -0.06093518 C484.79427119 -0.05539992 534.91151184 -0.06294049 585.02876759 -0.08170605 C597.65635741 -0.08642839 610.28394724 -0.09110895 622.91153717 -0.09554291 C624.07788395 -0.09595289 624.07788395 -0.09595289 625.26779329 -0.09637116 C649.23878394 -0.10474449 673.20977305 -0.10942231 697.18076515 -0.11025047 C697.93352304 -0.11027684 698.68628092 -0.11030321 699.46184965 -0.11033037 C715.98788285 -0.11087119 732.51391592 -0.11049861 749.03994907 -0.10929066 C754.95346068 -0.10886504 760.86697228 -0.10849992 766.78048389 -0.10816122 C768.25157211 -0.10807591 769.72266034 -0.10798698 771.19374857 -0.1078944 C794.61734791 -0.10644667 818.04093473 -0.11356512 841.46453107 -0.12489836 C865.71754698 -0.1365569 889.97053985 -0.13710193 914.22355594 -0.12505493 C928.20155166 -0.11842255 942.17948848 -0.12006619 956.1574795 -0.13364345 C965.49733453 -0.14188387 974.83714543 -0.13919564 984.17699688 -0.12766818 C989.49653532 -0.1214078 994.81595879 -0.11982132 1000.13549062 -0.13153151 C1004.98328135 -0.14210485 1009.8308602 -0.13865169 1014.67863974 -0.12442699 C1016.41328216 -0.1217183 1018.14794184 -0.12393225 1019.88256792 -0.13193413 C1034.90874655 -0.1964701 1049.58684215 1.41637024 1063.98994923 5.94197559 C1064.8126128 6.19616261 1065.63527637 6.45034962 1066.48286915 6.71223927 C1091.32956566 14.65985181 1112.18971229 28.33801047 1130.98994923 46.25447559 C1132.06889454 47.25414356 1132.06889454 47.25414356 1133.16963673 48.27400684 C1159.14446917 73.04919843 1175.72275412 111.95432127 1177.08293126 147.69791639 C1177.11750615 150.36757524 1177.12263113 153.03563033 1177.1160384 155.70550688 C1177.11752115 156.72848579 1177.11900391 157.7514647 1177.12053159 158.80544298 C1177.12428786 162.24057741 1177.12091969 165.67566759 1177.11759973 169.11080194 C1177.1188425 171.60990413 1177.12052322 174.10900613 1177.12260209 176.60810776 C1177.12613091 182.06908051 1177.12654088 187.53003997 1177.12424046 192.99101312 C1177.1208073 201.19007794 1177.12316859 209.38913422 1177.12663848 217.58819866 C1177.13240878 231.62506597 1177.13341128 245.66193008 1177.13186875 259.69879833 C1177.13031557 274.00577413 1177.13094674 288.31274739 1177.13420996 302.61972293 C1177.13451791 303.97930846 1177.13451791 303.97930846 1177.13483207 305.36636036 C1177.13588957 309.99410785 1177.13698106 314.62185533 1177.13808352 319.24960281 C1177.14606307 353.07553995 1177.14905403 386.90147614 1177.14952946 420.72741413 C1177.15002374 455.02274597 1177.15266664 489.31807664 1177.15793705 523.61340809 C1177.15827059 525.79869912 1177.15860406 527.98399015 1177.15893745 530.16928119 C1177.16028554 538.98016603 1177.16164884 547.79105087 1177.16302956 556.60193571 C1177.17820041 653.55019412 1177.18497303 750.49845224 1177.18945152 847.44671165 C1177.18953656 849.28640066 1177.18953656 849.28640066 1177.18962331 851.16325511 C1177.18990983 857.36690535 1177.19019487 863.57055559 1177.19047743 869.77420583 C1177.19285209 921.73900448 1177.19656167 973.70380301 1177.20051453 1025.66860156 C1177.20240709 1050.55046299 1177.20423559 1075.43232442 1177.20604873 1100.31418586 C1177.20613892 1101.55165151 1177.20622911 1102.78911716 1177.20632203 1104.06408176 C1177.21065834 1163.62271821 1177.21458665 1223.18135468 1177.21804905 1282.73999119 C1177.21815986 1284.64575544 1177.21815986 1284.64575544 1177.21827291 1286.59001999 C1177.22296817 1367.56400126 1177.22579101 1448.53798248 1177.22743583 1529.51196387 C1177.22757141 1536.15128618 1177.22771044 1542.79060849 1177.22784937 1549.4299308 C1177.22807184 1560.07445271 1177.22829321 1570.71897462 1177.22851325 1581.36349653 C1177.22854052 1582.68254035 1177.22856779 1584.00158418 1177.22859589 1585.36059903 C1177.228651 1588.02649673 1177.22870611 1590.69239444 1177.22876122 1593.35829214 C1177.22914784 1612.0589482 1177.22953578 1630.75960426 1177.22993035 1649.46026031 C1177.23007146 1656.15176294 1177.23021153 1662.84326558 1177.23034925 1669.53476821 C1177.23295357 1795.92050471 1177.23828446 1922.30623999 1177.25423145 2048.69197559 C1177.25439925 2050.02252653 1177.25456704 2051.35307746 1177.25473992 2052.72394812 C1177.25999063 2094.29629846 1177.26556498 2135.86864875 1177.27119923 2177.44099903 C1177.27698015 2220.09681795 1177.28271067 2262.75263688 1177.28815556 2305.40845585 C1177.28832336 2306.72183181 1177.28849117 2308.03520777 1177.28866406 2309.388383 C1177.29915611 2391.63473603 1177.30601853 2473.88108872 1177.30902195 2556.12744236 C1177.30906876 2557.39761401 1177.30911557 2558.66778566 1177.3091638 2559.97644736 C1177.3112144 2615.75794367 1177.31245853 2671.53943997 1177.31280986 2727.32093631 C1177.31295313 2749.76165541 1177.31319179 2772.2023745 1177.31347391 2794.6430936 C1177.31351945 2798.36391297 1177.3135611 2802.08473234 1177.31360203 2805.80555172 C1177.31424823 2862.72813819 1177.31720804 2919.65072325 1177.32706261 2976.57330894 C1177.32727498 2977.80111593 1177.32748735 2979.02892292 1177.32770616 2980.29393618 C1177.331135 3000.04514293 1177.33474795 3019.79634965 1177.33838256 3039.54755637 C1177.34869455 3095.6123454 1177.35747775 3151.67713271 1177.35553789 3207.74192286 C1177.35547978 3209.44804797 1177.35547978 3209.44804797 1177.3554205 3211.18864026 C1177.35454397 3236.00245623 1177.35283195 3260.81627208 1177.35030088 3285.63008794 C1177.34930411 3295.52630207 1177.34841746 3305.42251621 1177.34756565 3315.31873035 C1177.34742182 3316.93800203 1177.34742182 3316.93800203 1177.34727508 3318.58998626 C1177.34428544 3352.836874 1177.35052068 3387.08375174 1177.36208452 3421.33063743 C1177.37343188 3455.05018937 1177.3756851 3488.76972791 1177.36467901 3522.48928041 C1177.36317287 3527.10785163 1177.36177157 3531.72642288 1177.36043319 3536.34499416 C1177.36003412 3537.70125657 1177.36003412 3537.70125657 1177.35962699 3539.08491822 C1177.35570617 3553.33878062 1177.36179373 3567.59262008 1177.37217305 3581.84647851 C1177.38212473 3595.79411304 1177.3814212 3609.74171306 1177.36932209 3623.68934628 C1177.36258421 3631.82272843 1177.36392509 3639.95600893 1177.37757603 3648.08938301 C1177.38678083 3654.12204013 1177.38024031 3660.15457461 1177.36771429 3666.18723014 C1177.36509838 3668.5999387 1177.36744365 3671.01265941 1177.37552754 3673.42535584 C1177.51958575 3719.52378819 1163.85473172 3759.52195274 1131.98994923 3793.25447559 C1131.29514454 3794.00213184 1130.60033985 3794.74978809 1129.88448048 3795.52010059 C1103.50339572 3823.00640384 1064.44725251 3839.69440805 1026.50814823 3840.70321144 C1020.61134704 3840.78053269 1014.71678248 3840.76437788 1008.81969166 3840.73549366 C1006.13606573 3840.73724158 1003.45248394 3840.74058322 1000.7688669 3840.74585032 C994.97348707 3840.7540707 989.178273 3840.74769969 983.38291264 3840.73129749 C974.76570246 3840.70697729 966.14859492 3840.70597082 957.53135667 3840.70946545 C943.02998016 3840.71469964 928.528677 3840.70143729 914.02732182 3840.67739582 C899.68256866 3840.65367529 885.33784609 3840.63832149 870.99307346 3840.63398457 C870.09900572 3840.63370961 869.20493797 3840.63343465 868.28377726 3840.63315136 C863.74270536 3840.6317979 859.20163344 3840.63059241 854.66056149 3840.62944385 C822.5501218 3840.62105662 790.43972196 3840.59414756 758.3293047 3840.55623341 C727.14701517 3840.5194578 695.96473658 3840.49114193 664.7824297 3840.47420216 C663.33902988 3840.473413 663.33902988 3840.473413 661.86647047 3840.4726079 C652.20242584 3840.46733353 642.53838112 3840.46223031 632.87433633 3840.45725246 C613.19000351 3840.44710937 593.50567139 3840.43582436 573.82133961 3840.42384815 C572.91641414 3840.42329899 572.01148868 3840.42274983 571.07914123 3840.42218403 C510.71606065 3840.38542148 450.35300222 3840.32204542 389.98994923 3840.25447559 C389.98984918 3839.27875811 389.98974913 3838.30304063 389.98964606 3837.29775594 C389.98113767 3754.43087138 389.97171105 3671.56398693 389.96162891 3588.69710255 C389.96152914 3587.87657355 389.96142936 3587.05604456 389.96132656 3586.21065105 C389.9505867 3497.90528506 389.93896183 3409.59991916 389.87396039 3059.25284185 C389.8733105 3056.32775459 389.87266145 3053.40266733 389.87201268 3050.47758007 C389.85362765 2967.59236412 389.83446787 2884.70714837 389.81427075 2801.82193284 C389.81352321 2798.75418784 389.81277573 2795.68644284 389.81202827 2792.61869784 C389.81178139 2791.60547553 389.81153451 2790.59225321 389.81128015 2789.54832719 C389.8019992 2751.44995658 389.79289526 2713.35158593 389.78389698 2675.25321525 C389.78291913 2671.11377329 389.78193927 2666.97433132 389.78095757 2662.83488936 C389.75778694 2565.12679052 389.73779781 2467.41869252 389.72816944 2369.71059132 C389.72806788 2368.682197 389.72796631 2367.65380269 389.72786167 2366.59424492 C389.72448924 2332.39561478 389.72142582 2298.19698462 389.718405 2263.99835446 C389.71567463 2233.09848753 389.7128333 2202.19862062 389.7096262 2171.29875374 C389.70952089 2170.28366973 389.70941558 2169.26858572 389.70930708 2168.22274159 C389.70268268 2104.64971886 389.69125177 2041.07669835 389.67496586 1977.50367737 C389.6745895 1976.03083541 389.6745895 1976.03083541 389.67420555 1974.52823907 C389.66318253 1931.40526375 389.65115734 1888.28228877 389.63798626 1845.15931405 C389.63269203 1827.81047081 389.62754623 1810.46162752 389.62248173 1793.1127842 C389.62164076 1790.23622251 389.62079498 1787.35966082 389.61994868 1784.48309913 C389.60703751 1740.48112525 389.59743765 1696.47915381 389.59745407 1652.47717786 C389.59745437 1651.52821629 389.59745468 1650.57925472 389.59745499 1649.60153674 C389.59748016 1634.33610003 389.59778149 1619.07066333 389.59813046 1603.80522663 C389.5991211 1560.46567505 389.59824946 1517.12612796 389.58319139 1473.78657854 C389.58288674 1472.90706997 389.58258209 1472.02756139 389.5822682 1471.12140105 C389.57558182 1451.93262625 389.56780524 1432.74385205 389.55896204 1413.55507813 C389.55545262 1405.90181807 389.55209252 1398.24855795 389.54878139 1390.59529781 C389.54823379 1389.34303664 389.54823379 1389.34303664 389.54767513 1388.06547726 C389.53617077 1361.59327713 389.53695934 1335.12109649 389.54487198 1308.64889556 C389.55261507 1282.57779393 389.54824295 1256.50672639 389.52627534 1230.43563185 C389.5232664 1226.8622199 389.5203974 1223.28880784 389.51761261 1219.71539571 C389.51706212 1219.01584792 389.51651164 1218.31630013 389.51594447 1217.59555392 C389.50764068 1206.58079082 389.51264448 1195.56607677 389.52339905 1184.5513175 C389.53365778 1173.7651308 389.52933233 1162.97903073 389.51058029 1152.19285511 C389.50101054 1146.45443642 389.49760884 1140.7162057 389.51202846 1134.97779286 C389.52501893 1129.76166283 389.51932124 1124.5458855 389.49930337 1119.32978075 C389.49531929 1117.46834147 389.49785923 1115.60687221 389.50815589 1113.74545715 C389.72457885 1071.62442539 372.20603489 1032.71634854 342.92744923 1002.81697559 C314.24327529 974.25895724 275.00628516 958.13154037 234.6268816 958.09625721 C233.40715585 958.09131906 232.18743011 958.0863809 230.93074298 958.08129311 C227.54482951 958.06861327 224.15895704 958.06029537 220.77302936 958.05386619 C217.06419868 958.0457686 213.35538767 958.03206234 209.64657116 958.01916313 C202.22324278 957.99430321 194.79990907 957.97494784 187.37656014 957.95741746 C181.10340473 957.94250307 174.83025752 957.92554736 168.55711079 957.9073534 C145.40964249 957.84037776 122.26216231 957.7823201 99.1146577 957.7294476 C98.0457812 957.72700535 96.9769047 957.7245631 95.87563801 957.72204685 C94.26739699 957.71837378 94.26739699 957.71837378 92.62666625 957.7146265 C82.89624231 957.69228611 73.16582292 957.66823807 63.43540347 957.64403313 C-28.17700076 957.41618148 -119.7894885 957.26503769 -791.01005077 957.25447559 C-787.98203848 954.79328757 -785.1851159 952.65400341 -781.66630077 950.95760059 C-780.43218456 950.36169117 -780.43218456 950.36169117 -779.17313671 949.75374317 C-778.29431835 949.34148487 -777.41549999 948.92922657 -776.51005077 948.50447559 C-775.58224804 948.06836964 -774.6544453 947.63226368 -773.69852734 947.18294239 C-721.61821743 923.07315354 -664.37568993 917.06635369 -607.61869335 915.69907093 C-606.76926336 915.67808024 -605.91983337 915.65708954 -605.04466307 915.63546277 C-585.11922006 915.1531137 -565.19780156 915.1170884 -545.2675693 915.13840997 C-540.05622644 915.14282883 -534.84488437 915.14126016 -529.63354015 915.1405077 C-520.65642016 915.13998953 -511.67930758 915.14306123 -502.70218945 915.14874554 C-489.72362757 915.1569581 -476.74506919 915.15948561 -463.766505 915.16073353 C-442.69713152 915.16290893 -421.62776197 915.16952752 -400.55839062 915.17903614 C-380.12121633 915.18824971 -359.68404313 915.19531112 -339.24686718 915.19954395 C-337.98192901 915.19980668 -336.71699084 915.2000694 -335.4137212 915.20034008 C-329.06634816 915.20164535 -322.71897511 915.20290901 -316.37160206 915.20415199 C-263.91774892 915.21447743 -211.46390004 915.23205398 -159.01005077 915.25447559 C-159.01051872 914.59410376 -159.01098666 913.93373193 -159.01146878 913.25334883 C-159.06232964 841.326402 -159.10944288 769.39945311 -159.13708019 697.47249317 C-159.13749436 696.39735732 -159.13790853 695.32222147 -159.13833526 694.21450575 C-159.14731486 670.84653963 -159.15562528 647.47857333 -159.16324676 624.11060673 C-159.16698863 612.65026219 -159.17087831 601.18991771 -159.1748457 589.72957325 C-159.17523797 588.58915681 -159.17563025 587.44874036 -159.17603441 586.27376585 C-159.18880883 549.33762896 -159.21133558 512.40150589 -159.23894244 475.46537736 C-159.26727037 437.49535868 -159.2857141 399.52534763 -159.29179574 361.55531856 C-159.29266015 356.1871339 -159.29363706 350.81894928 -159.2946825 345.45076466 C-159.29488477 344.39427269 -159.29508704 343.33778073 -159.29529544 342.24927385 C-159.29883478 325.27153029 -159.31273324 308.2938104 -159.33054688 291.31607648 C-159.34825135 274.23025227 -159.35494403 257.14445142 -159.35055491 240.05861837 C-159.3482805 229.9189609 -159.35429058 219.77938924 -159.3724434 209.63974733 C-159.38376319 202.85030868 -159.38399291 196.06092567 -159.37554621 189.27148306 C-159.37105368 185.4133 -159.37105753 181.55527822 -159.38470032 177.69711304 C-159.55112041 127.568838 -148.71827616 83.21717961 -113.13114452 46.34431934 C-99.09583314 32.23778532 -83.10356088 21.45415621 -65.01005077 13.25447559 C-64.39694042 12.97619923 -63.78383007 12.69792286 -63.15214062 12.41121387 C-55.72817694 9.10702161 -48.22014334 6.60390168 -40.38505077 4.50447559 C-39.64601513 4.30571827 -38.90697948 4.10696095 -38.14554882 3.90218067 C-25.41389015 0.66056115 -13.05332263 -0.03608455 0 0 Z " fill="#D08C0B" transform="translate(2191.0100507736206,-0.25447559356689453)"/>
<path d="M0 0 C1.8035132 -0.00239328 3.60702541 -0.00566067 5.41053563 -0.0097166 C10.35760138 -0.01831329 15.30459097 -0.01451984 20.25165783 -0.00866088 C25.63721974 -0.00448348 31.02276794 -0.01189655 36.40832651 -0.01781338 C45.84451558 -0.02657286 55.28068295 -0.02788838 64.71687508 -0.02431011 C78.74913171 -0.01900303 92.78136734 -0.02509851 106.81362169 -0.03339304 C132.6047765 -0.04821905 158.39592179 -0.05048244 184.18708002 -0.04807267 C187.83998799 -0.04773421 191.49289596 -0.04741211 195.14580393 -0.04710698 C196.23418871 -0.04701542 196.23418871 -0.04701542 197.34456106 -0.046922 C213.43397845 -0.0456494 229.52339451 -0.04825279 245.61281151 -0.05163305 C249.28806601 -0.05240379 252.96332051 -0.05314853 256.63857501 -0.05389806 C258.113642 -0.05419976 259.58870898 -0.05450164 261.06377597 -0.05480371 C261.79494848 -0.05495338 262.52612099 -0.05510306 263.27945025 -0.05525728 C264.75842938 -0.05556081 266.23740852 -0.05586549 267.71638765 -0.05617132 C309.67711074 -0.06484336 351.63783265 -0.06948902 393.59855652 -0.06522369 C394.37538313 -0.06514564 395.15220974 -0.06506758 395.95257656 -0.06498716 C404.61475096 -0.06411438 413.27692535 -0.06318512 421.93909974 -0.06223653 C423.11216888 -0.06210826 423.11216888 -0.06210826 424.30893638 -0.06197741 C430.80652795 -0.06126667 430.80652795 -0.06126667 433.79688906 -0.06093518 C483.81188276 -0.05540021 533.826858 -0.06293964 583.84184837 -0.08170605 C596.44314444 -0.0864284 609.04444052 -0.09110898 621.64573669 -0.09554291 C622.80966258 -0.09595289 622.80966258 -0.09595289 623.99710211 -0.09637116 C647.91959088 -0.10474492 671.84207811 -0.10942235 695.76456833 -0.11025047 C696.51584081 -0.11027684 697.2671133 -0.11030321 698.04115161 -0.11033037 C714.53485816 -0.1108712 731.02856459 -0.11049859 747.5222711 -0.10929066 C753.42428134 -0.10886505 759.32629158 -0.10849992 765.22830182 -0.10816122 C766.69652411 -0.10807591 768.1647464 -0.10798698 769.63296869 -0.1078944 C793.00815491 -0.10644684 816.38332856 -0.11356403 839.75851176 -0.12489836 C863.96293015 -0.13655876 888.16732429 -0.13709992 912.37174304 -0.12505493 C926.32064532 -0.11842412 940.26948859 -0.12006256 954.21838616 -0.13364345 C963.54012472 -0.14188699 972.86181906 -0.13919158 982.18355402 -0.12766818 C987.491925 -0.12141088 992.80018081 -0.11981336 998.10854514 -0.13153151 C1002.94737339 -0.14211462 1007.78598953 -0.13863967 1012.62480662 -0.12442699 C1014.35508319 -0.12172112 1016.0853771 -0.12392345 1017.81563724 -0.13193413 C1033.18587226 -0.19817981 1048.50100078 1.30107093 1063.21147728 6.00447559 C1064.03551048 6.26124073 1064.85954369 6.51800587 1065.70854759 6.78255177 C1088.96669183 14.24427789 1109.30200254 26.45827566 1127.02397728 43.25447559 C1127.51478783 43.70741993 1128.00559837 44.16036427 1128.51128197 44.62703419 C1156.63491518 70.67424962 1174.84433238 108.61810635 1176.38786581 147.07074551 C1176.56218832 154.23978224 1176.55549179 161.40747791 1176.52332708 168.57788981 C1176.51090022 172.36672762 1176.52214901 176.15551609 1176.53015459 179.94435579 C1176.54102374 186.59011682 1176.53720225 193.23574002 1176.52351001 199.88149397 C1176.50309372 209.83008149 1176.50604446 219.77857178 1176.51337631 229.72717272 C1176.52520782 246.68654565 1176.51818707 263.64586335 1176.50079918 280.60522938 C1176.4832655 297.78263069 1176.4745113 314.96000345 1176.476408 332.13741398 C1176.47652277 333.2237399 1176.47663754 334.31006582 1176.47675579 335.42931072 C1176.47738132 340.96882546 1176.47814911 346.50834017 1176.47896713 352.04785489 C1176.48459217 392.10834082 1176.47089099 432.16880137 1176.44689751 472.22927952 C1176.42319742 511.89476999 1176.4077951 551.5602496 1176.40348625 591.22574711 C1176.40327978 593.07440592 1176.40327978 593.07440592 1176.40306914 594.96041137 C1176.40181632 606.21705646 1176.40066556 617.47370156 1176.39963724 628.73034668 C1176.39707985 656.71150702 1176.39324268 684.69266711 1176.38853645 712.67382717 C1176.38832318 713.9479439 1176.38810991 715.22206063 1176.38789018 716.53478695 C1176.37752071 777.82377523 1176.35275274 839.11275693 1176.32659305 900.4017401 C1176.31713295 922.5696522 1176.30773962 944.73756432 1176.29863548 966.90547657 C1176.29836148 967.57209536 1176.29808749 968.23871415 1176.29780518 968.92553351 C1176.27179196 1032.26760424 1176.25655717 1095.60967611 1176.24410034 1158.95175079 C1176.24357177 1161.63549441 1176.24304009 1164.31923802 1176.24250827 1167.00298163 C1176.23708912 1194.35155576 1176.23185695 1221.70012993 1176.22675415 1249.04870413 C1176.21684847 1302.12984526 1176.20588176 1355.21098616 1176.19418596 1408.29212693 C1176.193629 1410.81991573 1176.19307278 1413.34770453 1176.19251731 1415.87549334 C1176.16750911 1529.65205217 1176.13015861 1643.42860574 1176.08745384 1757.20515919 C1176.0870541 1758.27038408 1176.08665436 1759.33560898 1176.0862425 1760.43311342 C1176.06624119 1813.70690111 1176.0455451 1866.98068852 1176.02397728 1920.25447559 C1139.58403614 1920.27097093 1103.14409472 1920.28678661 1066.70415306 1920.30208302 C1065.99106344 1920.30238241 1065.27797383 1920.3026818 1064.54327543 1920.30299027 C988.12529436 1920.33505613 911.70731319 1920.36272438 835.28932762 1920.38150501 C833.59160884 1920.38192336 831.89389005 1920.38234172 830.19617126 1920.38276008 C794.55950924 1920.3915284 758.92284709 1920.39967852 723.28618476 1920.40711463 C705.38433602 1920.41085077 687.4824873 1920.41470569 669.5806386 1920.41867292 C666.88023591 1920.41927066 664.17983322 1920.41986502 661.47943053 1920.42045923 C619.90394545 1920.42963766 578.328463 1920.44136121 536.75298119 1920.46046925 C535.8592767 1920.46087994 534.96557221 1920.46129064 534.04478577 1920.46171378 C519.63590106 1920.46835078 505.22701644 1920.47520165 490.81813183 1920.48208091 C449.3089883 1920.50189545 407.7998468 1920.52012483 366.29069901 1920.52789497 C365.43683786 1920.52805558 364.58297671 1920.52821618 363.70324098 1920.52838166 C344.95752277 1920.5318792 326.21180453 1920.53456364 307.46608609 1920.53647854 C299.92308532 1920.53726339 292.38008457 1920.53816525 284.83708382 1920.53910732 C284.01154266 1920.5392076 283.18600151 1920.53930789 282.33544396 1920.53941121 C255.75004311 1920.54269882 229.16465733 1920.55550616 202.57926256 1920.57332222 C175.79185225 1920.59122998 149.00445654 1920.59976961 122.21704009 1920.59534756 C118.51243976 1920.59473834 114.80783942 1920.59423619 111.10323906 1920.59379864 C110.37705341 1920.593709 109.65086776 1920.59361935 108.90267648 1920.593527 C97.41958034 1920.59238654 85.93651519 1920.60132531 74.45342749 1920.61450518 C63.15240617 1920.62726777 51.85143578 1920.62902584 40.55040673 1920.61997103 C34.50887822 1920.61544186 28.46745297 1920.61563582 22.42593552 1920.62912514 C16.92287503 1920.64131868 11.41999782 1920.63953358 5.91693995 1920.62689552 C3.94505553 1920.62476393 1.97315739 1920.62759424 0.00129051 1920.63618133 C-15.70984454 1920.70022738 -30.90030982 1919.30392066 -45.97602272 1914.56697559 C-46.79868629 1914.31278858 -47.62134987 1914.05860157 -48.46894264 1913.79671192 C-73.31563915 1905.84909938 -94.17578578 1892.17094071 -112.97602272 1874.25447559 C-114.05496803 1873.25480762 -114.05496803 1873.25480762 -115.15571022 1872.23494434 C-124.82027312 1863.01673676 -132.4206945 1851.8258242 -138.97602272 1840.25447559 C-139.30312233 1839.67955372 -139.63022194 1839.10463184 -139.96723366 1838.51228809 C-149.26834734 1821.8882488 -155.45246358 1803.1290295 -157.97602272 1784.25447559 C-158.06196136 1783.62480487 -158.1479 1782.99513414 -158.23644284 1782.34638249 C-159.01388838 1776.12046094 -159.11654187 1769.97803525 -159.10367322 1763.70924544 C-159.105324 1762.56843498 -159.10697478 1761.42762452 -159.10867558 1760.25224404 C-159.11299985 1756.41794708 -159.11019945 1752.58368854 -159.10745049 1748.7493906 C-159.1085457 1745.96540766 -159.11114553 1743.18142657 -159.11367059 1740.39744461 C-159.11838029 1734.3194331 -159.11936986 1728.24142974 -159.11794224 1722.16341671 C-159.11582073 1713.06421554 -159.119435 1703.96502279 -159.12415702 1694.86582292 C-159.13203072 1679.35799115 -159.13511908 1663.85016168 -159.13560295 1648.34232807 C-159.13610522 1632.62365577 -159.1387509 1616.90498604 -159.14401054 1601.18631458 C-159.14434068 1600.19396287 -159.14467081 1599.20161116 -159.14501095 1598.17918819 C-159.14636094 1594.13755261 -159.1477236 1590.09591702 -159.14910305 1586.05428145 C-159.16540917 1538.19418067 -159.17179214 1490.33408039 -159.17655092 1442.4739773 C-159.17893381 1418.64344529 -159.18263722 1394.81291357 -159.18658802 1370.98238177 C-159.19925288 1294.54753387 -159.21003669 1218.11268599 -159.21342848 1141.67783705 C-159.21359072 1138.0243291 -159.21375628 1134.37082114 -159.21392286 1130.71731318 C-159.21425666 1123.39010446 -159.21458714 1116.06289574 -159.21491742 1108.73568702 C-159.21530432 1100.15724499 -159.21569393 1091.57880296 -159.21608849 1083.00036094 C-159.21620091 1080.54513803 -159.21631232 1078.08991512 -159.21642274 1075.63469221 C-159.21997216 996.78172422 -159.23505031 917.92876535 -159.25836048 839.07580084 C-159.27510256 782.41826366 -159.29057736 725.7607282 -159.29509544 669.10318851 C-159.29523567 667.3553232 -159.29523567 667.3553232 -159.29537873 665.57214748 C-159.29739781 639.9917496 -159.29855383 614.41135174 -159.29890732 588.83095378 C-159.29904349 579.67763403 -159.29925249 570.52431428 -159.29950057 561.37099453 C-159.29956213 559.09386827 -159.29962045 556.81674201 -159.29967552 554.53961574 C-159.30059525 518.2582169 -159.31056238 481.97682758 -159.32513301 445.69543187 C-159.33975135 409.14894582 -159.34478937 372.60247143 -159.33671347 336.05598298 C-159.33559812 331.00380512 -159.33458745 325.95162724 -159.33363914 320.89944935 C-159.33344918 319.90910007 -159.33325921 318.9187508 -159.33306348 317.89839094 C-159.33033172 302.22830603 -159.33766578 286.55824274 -159.34921251 270.88816253 C-159.36036155 255.47281802 -159.3607763 240.057504 -159.34984233 224.64215901 C-159.34375544 215.60953819 -159.34581514 206.57700949 -159.3600943 197.5443974 C-159.3687665 191.5363099 -159.36644343 185.52828981 -159.35539559 179.52020643 C-159.34944513 176.12023483 -159.34964478 172.72058849 -159.36008045 169.32060663 C-159.49291158 122.98460866 -147.12001355 81.48948356 -114.2968235 47.62654591 C-113.18993769 46.4766941 -112.10898457 45.30195481 -111.03461647 44.12166309 C-82.92577087 14.06343447 -40.23545384 -0.11146267 0 0 Z " fill="#F5D95E" transform="translate(630.9760227203369,1919.745524406433)"/>
<path d="M0 0 C5.21134286 0.00441886 10.42268494 0.00285019 15.63402915 0.00209773 C24.61114914 0.00157955 33.58826173 0.00465126 42.56537986 0.01033556 C55.54394173 0.01854812 68.52250011 0.02107564 81.5010643 0.02232356 C102.57043778 0.02449896 123.63980733 0.03111755 144.70917869 0.04062617 C165.14635297 0.04983974 185.58352618 0.05690115 206.02070212 0.06113398 C207.2856403 0.0613967 208.55057847 0.06165943 209.8538481 0.06193011 C216.20122114 0.06323538 222.54859419 0.06449903 228.89596725 0.06574202 C281.34982053 0.07606746 333.80366901 0.093924 386.25751853 0.11606562 C386.25751853 13.64606562 386.25751853 27.17606562 386.25751853 41.11606562 C177.69751853 41.44606562 -30.86248147 41.77606562 -245.74248147 42.11606562 C-240.10463298 37.60578683 -240.10463298 37.60578683 -236.39873147 35.81919062 C-235.57598733 35.42191767 -234.75324319 35.02464472 -233.90556741 34.6153332 C-233.02674905 34.2030749 -232.14793069 33.7908166 -231.24248147 33.36606562 C-230.31467874 32.92995966 -229.386876 32.49385371 -228.43095803 32.04453242 C-176.35064813 7.93474356 -119.10812063 1.92794372 -62.35112405 0.56066096 C-61.50169406 0.53967026 -60.65226406 0.51867957 -59.77709377 0.4970528 C-39.85165076 0.01470373 -19.93023226 -0.02132158 0 0 Z " fill="#000000" transform="translate(1645.742481470108,914.883934378624)"/>
</svg>
